<?xml version="1.0" standalone="no"?>
<!DOCTYPE svg PUBLIC "-//W3C//DTD SVG 1.0//EN" "http://www.w3.org/TR/2001/REC-SVG-20010904/DTD/svg10.dtd">
<svg xmlns="http://www.w3.org/2000/svg" xmlns:xlink="http://www.w3.org/1999/xlink" id="body_1" width="76" height="76">

<g transform="matrix(0.038270954 0 0 0.038270954 -0 -2.3358737E-06)">
	<g>
        <path d="M992.91 0C 1297.1 0 1569.29 136.82 1751.4299 352.25C 1616.8099 293.5 1468.1699 260.9 1311.8999 260.9C 1294.2299 260.9 1276.6299 261.32 1259.1599 262.15C 1241.45 226.2 1204.44 201.45999 1161.6499 201.45999C 1128.45 201.45999 1098.7399 216.34999 1078.7999 239.84C 978.1499 209.48999 871.4199 193.16 760.8899 193.16C 746.9699 193.16 733.1299 193.43001 719.3399 193.94C 713.6099 182.02 705.7799 171.3 696.3099 162.28C 719.52985 113.84 746.4599 67.52 776.72986 23.669998C 846.3198 8.199998 918.66986 -1.9073486E-06 992.91986 -1.9073486E-06L992.91986 -1.9073486E-06L992.91 0zM1013.41 301.92C 861.93994 344.54 723.70996 418.80002 606.3 517.11C 604.29 516.1 602.25 515.14 600.17 514.26C 605.07 457.85 614.54 402.77002 628.22 349.36002C 674.70996 346.45 713.25995 314.30002 725.72 271.09003C 737.38995 270.69003 749.1 270.48004 760.87 270.48004C 848.02 270.48004 932.63 281.40005 1013.4 301.93005zM461.00995 663.92004C 383.98996 757.87006 322.22995 864.80005 279.49994 980.93005C 272.69995 981.32007 266.07993 982.3301 259.65994 983.92004C 177.69995 852.51 124.74994 701.14 109.75995 538.76C 120.53995 517.83 132.05995 497.33002 144.24995 477.29C 256.44995 392.35 386.70996 330 528.25995 297.07C 535.1 308.38 543.92993 318.33002 554.26996 326.45C 538.73 386.25 528.1 448.04 522.81995 511.35C 479.90994 525.87 449.01996 566.48 449.01996 614.3C 449.01996 632.18 453.33997 649.05 460.98996 663.93zM276.86993 305.16003C 383.81995 193.84003 516.45996 107.40004 665.2899 55.40004C 650.8499 80.44004 637.3899 106.10004 624.9199 132.33005C 623.7299 132.30005 622.5299 132.26004 621.31995 132.26004C 568.16 132.26004 523.9199 170.45004 514.51996 220.88004C 431.29996 239.93004 351.69995 268.42004 276.86996 305.16003zM226.83994 1180.67C 217.18994 1239.24 212.15994 1299.3601 212.15994 1360.67C 212.15994 1462.03 225.87994 1560.17 251.54994 1653.3601C 95.11995 1477.8701 -0.010055542 1246.5302 -0.010055542 992.9401C -0.010055542 881.4401 18.409945 774.26013 52.299946 674.2301C 79.51994 801.7701 128.84995 921.1301 196.09995 1028.0901C 184.14995 1045.55 177.14995 1066.66 177.14995 1089.4001C 177.14995 1127.6702 196.93994 1161.3202 226.83995 1180.6702zM1849.7 490.93005C 1936.2 638.2101 1985.84 809.77 1985.84 992.94006L1985.84 992.94006L1985.7999 999.91003C 1951.1499 1053.24 1911.6699 1103.14 1867.97 1149C 1862.37 1146.31 1856.49 1144.09 1850.4099 1142.38C 1817.08 898.93 1704.07 680.83997 1538.5299 515.29C 1469.82 446.58 1392.0499 386.93 1307.1799 338.25L1307.1799 338.25L1311.9099 338.22C 1509.22 338.22 1693.46 394.12 1849.71 490.93zM1717.19 1279.15C 1557.7899 1391.8 1364.74 1459.98 1156.08 1465.65C 1141.08 1423.6 1100.9099 1393.49 1053.72 1393.49C 1031.09 1393.49 1010.08997 1400.42 992.68994 1412.25C 958.58997 1385.82 926.22 1357.27 895.75995 1326.81C 735.01996 1166.0701 627.5499 952.03 602.11993 713.48004C 639.9699 696.49005 666.33997 658.47003 666.33997 614.30005C 666.33997 600.10004 663.61 586.54004 658.66 574.11005C 776.16 476.42004 915.91 404.54004 1069.1799 367.23004C 1088.33 398.17004 1122.57 418.79004 1161.6299 418.79004C 1191.0599 418.79004 1217.7599 407.07004 1237.3298 388.08005C 1328.5298 436.20004 1411.5798 497.69006 1483.8499 569.9601C 1636.9398 723.05005 1741.6898 924.4701 1773.2898 1149.3701C 1737.1998 1167.0302 1712.3398 1204.1201 1712.3398 1247.0101C 1712.3398 1258.2001 1714.0298 1268.9901 1717.1798 1279.1501zM1974.11 1145.9401C 1953.52 1279.05 1906.45 1403.42 1838.51 1513.53C 1849.43 1459.91 1856.4401 1404.87 1859.25 1348.73C 1900.4 1333.26 1929.67 1293.5499 1929.67 1247.01C 1929.67 1232.16 1926.68 1217.99 1921.29 1205.1C 1939.5901 1186.03 1957.2101 1166.2899 1974.11 1145.94zM1729.79 1620.3C 1693.31 1624.25 1656.25 1626.28 1618.7201 1626.28C 1472.6602 1626.28 1333.7501 1595.65 1208.06 1540.4601C 1414.74 1525.56 1605.5901 1453.52 1764.92 1340.0901C 1770.27 1343.3201 1775.93 1346.1001 1781.8301 1348.3801C 1776.78 1443.0201 1758.8701 1534.2201 1729.79 1620.3002zM1688.49 1701.41C 1509.34 1877.3201 1263.82 1985.8501 992.89996 1985.8501C 759.13995 1985.8501 544.25 1905.0302 374.62994 1769.8401C 319.84995 1644.54 289.46994 1506.1602 289.46994 1360.67C 289.46994 1304.88 293.95993 1250.14 302.55994 1196.78C 309.22995 1195.75 315.69995 1194.1 321.90994 1191.91C 331.14993 1201.86 340.57996 1211.64 350.17993 1221.24C 509.13995 1380.21 716.55994 1490.7 948.3599 1528.75C 960.2299 1575.9 1002.8899 1610.81 1053.73 1610.81C 1080.09 1610.81 1104.27 1601.41 1123.09 1585.79C 1272.03 1661.12 1440.4299 1703.5801 1618.74 1703.5801C 1642.1799 1703.5801 1665.44 1702.8501 1688.51 1701.41zM353.30994 1004.26C 392.55994 898.73 448.73993 801.45 518.5399 715.69C 520.61993 716.49 522.7199 717.23 524.8499 717.9C 551.4499 976.03 667.30994 1207.7 841.0899 1381.47C 862.1699 1402.5499 884.0999 1422.78 906.8299 1442.09C 713.17993 1399.4299 540.1199 1301.88 404.8299 1166.58C 396.7399 1158.48 388.7699 1150.25 380.9499 1141.89C 389.55988 1126.33 394.4499 1108.4401 394.4499 1089.4C 394.4499 1054.9 378.3599 1024.17 353.2999 1004.26z" stroke="none" fill="#FFFFFF" fill-rule="nonzero" />
	</g>
</g>
</svg>