<?xml version="1.0" standalone="no"?>
<!DOCTYPE svg PUBLIC "-//W3C//DTD SVG 1.0//EN" "http://www.w3.org/TR/2001/REC-SVG-20010904/DTD/svg10.dtd">
<svg xmlns="http://www.w3.org/2000/svg" xmlns:xlink="http://www.w3.org/1999/xlink" id="body_1" width="76" height="76">

<g transform="matrix(0.038270954 0 0 0.038270954 -0 -2.3358737E-06)">
	<g>
        <path d="M-0 0L397.17 0L397.17 397.17L0 397.17L0 0zM1588.67 1588.67L1985.8401 1588.67L1985.8401 1985.8401L1588.67 1985.8401L1588.67 1588.67zM1588.67 794.33L1985.8401 794.33L1985.8401 1191.5L1588.67 1191.5L1588.67 794.32996zM1588.67 -0.010009766L1985.8401 -0.010009766L1985.8401 397.16L1588.67 397.16L1588.67 -0.010009766zM794.33 1588.66L1191.5 1588.66L1191.5 1985.8301L794.32996 1985.8301L794.32996 1588.66zM794.33 794.32L1191.5 794.32L1191.5 1191.49L794.32996 1191.49L794.32996 794.31995zM794.33 -0.020019531L1191.5 -0.020019531L1191.5 397.15L794.32996 397.15L794.32996 -0.020019531zM-0.010009766 1588.65L397.16 1588.65L397.16 1985.8201L-0.010009766 1985.8201L-0.010009766 1588.65zM-0.010009766 794.31L397.16 794.31L397.16 1191.48L-0.010009766 1191.48L-0.010009766 794.30994z" stroke="none" fill="#FFFFFF" fill-rule="nonzero" />
	</g>
</g>
</svg>