<?xml version="1.0" standalone="no"?>
<!DOCTYPE svg PUBLIC "-//W3C//DTD SVG 1.0//EN" "http://www.w3.org/TR/2001/REC-SVG-20010904/DTD/svg10.dtd">
<svg xmlns="http://www.w3.org/2000/svg" xmlns:xlink="http://www.w3.org/1999/xlink" id="body_1" width="60" height="60">

<g transform="matrix(0.037834123 0 0 0.037834123 0 0)">
	<g>
        <path d="M429.64 424.34L409.76 424.34L372.6 610.19L466.8 610.19L429.63998 424.34L429.64 424.34zM542.85004 1400.02L550.82 1463.77C 556.14 1506.46 584.51 1549.99 631.16003 1571.73C 719.22003 1474.7999 665.94006 1533.44 787.14 1400.02L787.14 1400.02L542.85004 1400.02zM756.27 122.089966C 747.61005 52.489967 688.13 -3.0517578E-05 617.98004 -3.0517578E-05L617.98004 -3.0517578E-05L139.38004 -3.0517578E-05C 62.520035 -3.0517578E-05 3.0517578E-05 62.51997 3.0517578E-05 139.37997L3.0517578E-05 139.37997L3.0517578E-05 1167.71C 3.0517578E-05 1244.57 62.52003 1307.1 139.38004 1307.1C 417.12003 1307.1 616.93005 1307.1 872.0801 1307.1C 885.63007 1291.61 896.99005 1281.9 897.4701 1261.6799C 897.5901 1256.61 756.9001 127.11987 756.2701 122.089966zM569.75 888.04C 545.11 893.11 520.15 877.12 515.08 851.6L515.08 851.6L485.38 703.1L354.01 703.1L324.31 851.6C 319.32 876.74 295.09 893.25 269.64 888.04C 244.50002 883 228.17001 858.55 233.20001 833.37L233.20001 833.37L326.12 368.76C 330.47 347.07 349.53 331.41 371.66998 331.41L371.66998 331.41L467.68997 331.41C 489.81998 331.41 508.87997 347.07 513.23 368.76L513.23 368.76L606.14996 833.37C 611.19995 858.56 594.86 883.01 569.72 888.04zM1446.49 281.84998L869.49 281.84998L989.8 1247.25C 991.93 1286.74 981.14 1323.92 955.37 1353.02L955.37 1353.02L751.63 1585.86L1446.5 1585.86C 1523.36 1585.86 1585.88 1523.34 1585.88 1446.48L1585.88 1446.48L1585.88 424.32996C 1585.88 347.46997 1523.36 281.84998 1446.5 281.84998zM1446.49 796.02997L1434.08 796.02997C 1407.64 880.83997 1365.72 947.20996 1322.1499 999.52997C 1356.2899 1030.74 1392.7799 1056.33 1429.07 1085.01C 1449.07 1101.03 1452.34 1130.24 1436.2899 1150.3C 1420.2899 1170.3201 1390.96 1173.5701 1370.9899 1157.52C 1331.5698 1126.4 1294.5598 1100.35 1257.5498 1066.39C 1220.5398 1100.35 1186.6298 1126.4 1147.1998 1157.52C 1127.2399 1173.5801 1097.8998 1170.3301 1081.9098 1150.3C 1065.8398 1130.24 1069.1097 1101.03 1089.1298 1085.01C 1125.4198 1056.34 1158.8198 1030.74 1192.9397 999.53C 1149.3698 947.22003 1110.5397 880.85004 1084.1097 796.03L1084.1097 796.03L1071.6997 796.03C 1046.0197 796.03 1025.2397 775.25 1025.2397 749.56006C 1025.2397 723.88007 1046.0098 703.10004 1071.6997 703.10004L1071.6997 703.10004L1211.0897 703.10004L1211.0897 656.63C 1211.0897 630.95 1231.8597 610.17 1257.5497 610.17C 1283.2297 610.17 1304.0096 630.94 1304.0096 656.63L1304.0096 656.63L1304.0096 703.1L1446.4996 703.1C 1472.1697 703.1 1492.9596 723.87 1492.9596 749.56C 1492.9596 775.24 1472.1796 796.03 1446.4996 796.03zM1181.26 796.02997C 1201.3201 849.92 1228.01 893.54 1257.54 930.66C 1287.0701 893.54 1316.8501 849.91 1336.91 796.02997L1336.91 796.02997L1181.26 796.02997z" stroke="none" fill="#FFFFFF" fill-rule="nonzero" />
	</g>
</g>
</svg>