<?xml version="1.0" standalone="no"?>
<!DOCTYPE svg PUBLIC "-//W3C//DTD SVG 1.0//EN" "http://www.w3.org/TR/2001/REC-SVG-20010904/DTD/svg10.dtd">
<svg xmlns="http://www.w3.org/2000/svg" xmlns:xlink="http://www.w3.org/1999/xlink" id="body_1" width="20" height="20">

<g transform="matrix(0.010071203 0 0 0.010071203 -0 5.0405197E-05)">
    <path d="M909.7 155.84L1985.63 0L1985.86 940.98L909.69995 948.92L909.69995 155.84L909.7 155.84zM908.10004 1047.14L1985.6301 1047.14L1985.6301 1985.8501L909.7 1834.08L908.10004 1047.1399zM0 1036.7L811.22 1039.6499L811.44995 1822.2899L0 1710.9L0 1036.69zM0 282.41992C 269.73 240.90993 540.59 205.05992 811.45 171.25992L811.45 171.25992L811.91003 951.6299C 541.28 951.4 270.64 955.48 0 954.8L0 954.8L0 282.42z" stroke="none" fill="#FFFFFF" fill-rule="nonzero" />
</g>
</svg>