<?xml version="1.0" ?><svg xmlns="http://www.w3.org/2000/svg" width="24" height="24" viewBox="0 0 24 24" fill="none"><g id="triangle" clip-path="url(#clip0_1701_1267)"><g id="outline" filter="url(#filter0_d_1701_1267)"><path d="M14.4778 2.5259C14.3034 2.20199 13.9652 2 13.5973 2H10.4027C10.0348 2 9.69665 2.20199 9.52223 2.5259L2.11953 16.2738C2.04107 16.4195 2 16.5824 2 16.7479V20C2 20.5523 2.44772 21 3 21H21C21.5523 21 22 20.5523 22 20V16.7479C22 16.5824 21.9589 16.4195 21.8805 16.2738L14.4778 2.5259Z" fill="white"/></g><path id="icon" fill-rule="evenodd" clip-rule="evenodd" d="M20 17L13 4H11L4 17V19H20V17Z" fill="#3D6629"/></g><defs><filter id="filter0_d_1701_1267" x="0" y="0.5" width="24" height="23" filterUnits="userSpaceOnUse" color-interpolation-filters="sRGB"><feFlood flood-opacity="0" result="BackgroundImageFix"/><feColorMatrix in="SourceAlpha" type="matrix" values="0 0 0 0 0 0 0 0 0 0 0 0 0 0 0 0 0 0 127 0" result="hardAlpha"/><feOffset dy="0.5"/><feGaussianBlur stdDeviation="1"/><feComposite in2="hardAlpha" operator="out"/><feColorMatrix type="matrix" values="0 0 0 0 0 0 0 0 0 0 0 0 0 0 0 0 0 0 0.25 0"/><feBlend mode="normal" in2="BackgroundImageFix" result="effect1_dropShadow_1701_1267"/><feBlend mode="normal" in="SourceGraphic" in2="effect1_dropShadow_1701_1267" result="shape"/></filter><clipPath id="clip0_1701_1267"><rect width="24" height="24" fill="white"/></clipPath></defs></svg>